<?xml version="1.0" encoding="UTF-8"?>
<svg width="64px" height="64px" viewBox="0 0 64 64" version="1.1" xmlns="http://www.w3.org/2000/svg" xmlns:xlink="http://www.w3.org/1999/xlink">
    <title>roadmap</title>
    <g id="roadmap" stroke="none" stroke-width="1" fill="none" fill-rule="evenodd">
        <g id="Icon" transform="translate(5.878047, 5.782749)" fill-rule="nonzero">
            <path d="M36.9595878,51.3631199 L35.9595878,51.3631199 L35.9595878,52.3631199 L36.9595878,52.3631199 L36.9595878,51.3631199 Z M34.9595878,51.3631199 L33.9595878,51.3631199 L33.9595878,52.3631199 L34.9595878,52.3631199 L34.9595878,51.3631199 Z M32.9595878,51.3631199 L31.9595878,51.3631199 L31.9595878,52.3631199 L32.9595878,52.3631199 L32.9595878,51.3631199 Z M30.9595878,51.3631199 L29.9595878,51.3631199 L29.9595878,52.3631199 L30.9595878,52.3631199 L30.9595878,51.3631199 Z M28.9595878,51.3631199 L27.9595878,51.3631199 L27.9595878,52.3631199 L28.9595878,52.3631199 L28.9595878,51.3631199 Z M26.9595878,51.3631199 L25.9595878,51.3631199 L25.9595878,52.3631199 L26.9595878,52.3631199 L26.9595878,51.3631199 Z M24.9595878,51.3631199 L23.9595878,51.3631199 L23.9595878,52.3631199 L24.9595878,52.3631199 L24.9595878,51.3631199 Z M22.9595878,51.3631199 L21.9595878,51.3631199 L21.9595878,52.3631199 L22.9595878,52.3631199 L22.9595878,51.3631199 Z M20.9595878,51.3631199 L19.9595878,51.3631199 L19.9595878,52.3631199 L20.9595878,52.3631199 L20.9595878,51.3631199 Z M18.9595878,51.3631199 L17.9595878,51.3631199 L17.9595878,52.3631199 L18.9595878,52.3631199 L18.9595878,51.3631199 Z M16.9595878,51.3631199 L15.9595878,51.3631199 L15.9595878,52.3631199 L16.9595878,52.3631199 L16.9595878,51.3631199 Z M14.9595878,51.3631199 L13.9595878,51.3631199 L13.9595878,52.3631199 L14.9595878,52.3631199 L14.9595878,51.3631199 Z M12.9595878,51.3631199 L11.9595878,51.3631199 L11.9595878,52.3631199 L12.9595878,52.3631199 L12.9595878,51.3631199 Z M10.9595878,51.3631199 L9.95958776,51.3631199 L9.95958776,52.3631199 L10.9595878,52.3631199 L10.9595878,51.3631199 Z M8.95958776,51.3631199 L7.95958776,51.3631199 L7.95958776,52.3631199 L8.95958776,52.3631199 L8.95958776,51.3631199 Z M6.95958776,51.3631199 L5.95958776,51.3631199 L5.95958776,52.3631199 L6.95958776,52.3631199 L6.95958776,51.3631199 Z M4.95958776,51.3631199 L3.95958776,51.3631199 L3.95958776,52.3631199 L4.95958776,52.3631199 L4.95958776,51.3631199 Z M3.09403355,51.270351 C2.81845509,51.1976794 2.55652598,51.0834098 2.31618444,50.9319638 L1.7830691,51.7780064 C2.10906252,51.9834241 2.46471834,52.138583 2.83904478,52.2372951 L3.09403355,51.270351 Z M1.62618768,50.3191777 C1.4469758,50.0979987 1.30213148,49.8510416 1.19715719,49.5865043 L0.267665471,49.9553473 C0.410124568,50.314347 0.606489759,50.6491464 0.849221596,50.9487201 L1.62618768,50.3191777 Z M1.00696085,48.7497272 C1.00263909,48.6881542 1.00031021,48.6262398 1,48.5640416 C0.999963079,48.3265873 1.02578426,48.1055569 1.07759048,47.8897708 L0.105221136,47.656323 C0.0349323829,47.9490935 -4.89571545e-05,48.2485353 0,48.566664 C0.000433472743,48.6529982 0.00357683611,48.736566 0.00941504986,48.8197442 L1.00696085,48.7497272 Z M1.4059943,47.0924519 C1.55363297,46.8490939 1.73761787,46.6291103 1.95104106,46.4404359 L1.28870952,45.691225 C0.999941243,45.9465074 0.750979374,46.2441815 0.551028497,46.5737676 L1.4059943,47.0924519 Z M2.68273331,45.9720332 C2.94181368,45.8581382 3.21734911,45.7839327 3.50214516,45.752617 L3.39284572,44.7586082 C3.00649493,44.8010906 2.63214594,44.901908 2.2802917,45.0565876 L2.68273331,45.9720332 Z M4.52297097,45.7356022 L5.52297097,45.7356022 L5.52297097,44.7356022 L4.52297097,44.7356022 L4.52297097,45.7356022 Z M6.52297097,45.7356022 L7.52297097,45.7356022 L7.52297097,44.7356022 L6.52297097,44.7356022 L6.52297097,45.7356022 Z M8.52297097,45.7356022 L9.52297097,45.7356022 L9.52297097,44.7356022 L8.52297097,44.7356022 L8.52297097,45.7356022 Z M10.522971,45.7356022 L11.522971,45.7356022 L11.522971,44.7356022 L10.522971,44.7356022 L10.522971,45.7356022 Z M12.522971,45.7356022 L13.522971,45.7356022 L13.522971,44.7356022 L12.522971,44.7356022 L12.522971,45.7356022 Z M14.522971,45.7356022 L15.522971,45.7356022 L15.522971,44.7356022 L14.522971,44.7356022 L14.522971,45.7356022 Z M16.522971,45.7356022 L17.522971,45.7356022 L17.522971,44.7356022 L16.522971,44.7356022 L16.522971,45.7356022 Z M18.522971,45.7356022 L18.7256298,45.7356022 C19.0352263,45.7356022 19.3403861,45.6986001 19.6362696,45.6260669 L19.3981781,44.6548242 C19.1800662,44.7082923 18.9548393,44.7356022 18.7256298,44.7356022 L18.522971,44.7356022 L18.522971,45.7356022 Z M20.7171768,45.1747978 C21.0457529,44.9732505 21.3421975,44.7228612 21.5960584,44.4328756 L20.8436407,43.7741894 C20.6560163,43.9885129 20.4369342,44.1735587 20.1943095,44.3223836 L20.7171768,45.1747978 Z M22.2259521,43.4379786 C22.3788553,43.0854181 22.4778074,42.7106059 22.5183927,42.324009 L21.5238581,42.2196019 C21.4939376,42.504611 21.4211028,42.7804955 21.3085171,43.0400929 L22.2259521,43.4379786 Z M22.4489487,41.0930083 C22.3650397,40.7146579 22.224023,40.3531774 22.0316312,40.0194776 L21.1653025,40.518952 C21.3070805,40.764863 21.4108955,41.0309812 21.4726695,41.3095236 L22.4489487,41.0930083 Z M21.2502044,39.0633264 C20.9613034,38.808004 20.6352498,38.597459 20.2829929,38.4396929 L19.8742436,39.3523396 C20.1339485,39.4686542 20.3745959,39.6240493 20.5879853,39.8126367 L21.2502044,39.0633264 Z M19.1548713,38.1320204 C19.023006,38.1172265 18.8899674,38.1092558 18.7561344,38.1082043 L18.0732368,38.1080845 L18.0730831,39.1080845 L18.7521292,39.1081889 C18.847465,39.1089527 18.9459125,39.114851 19.0433811,39.125786 L19.1548713,38.1320204 Z M17.07316,38.1080845 L16.07316,38.1080845 L16.07316,39.1080845 L17.07316,39.1080845 L17.07316,38.1080845 Z M15.07316,38.1080845 L14.07316,38.1080845 L14.07316,39.1080845 L15.07316,39.1080845 L15.07316,38.1080845 Z M13.07316,38.1080845 L12.07316,38.1080845 L12.07316,39.1080845 L13.07316,39.1080845 L13.07316,38.1080845 Z M11.07316,38.1080845 L10.07316,38.1080845 L10.07316,39.1080845 L11.07316,39.1080845 L11.07316,38.1080845 Z M9.07315995,38.1080845 L8.07315995,38.1080845 L8.07315995,39.1080845 L9.07315995,39.1080845 L9.07315995,38.1080845 Z M7.07315995,38.1080845 L6.07315995,38.1080845 L6.07315995,39.1080845 L7.07315995,39.1080845 L7.07315995,38.1080845 Z M5.07315995,38.1080845 L4.07315995,38.1080845 L4.07315995,39.1080845 L5.07315995,39.1080845 L5.07315995,38.1080845 Z M3.1883518,38.0384399 C2.91017321,37.975348 2.64456273,37.8702723 2.39932167,37.7273308 L1.89575499,38.5912872 C2.2285283,38.7852478 2.58930501,38.9279713 2.96716557,39.0136715 L3.1883518,38.0384399 Z M1.69474372,37.1455741 C1.50730238,36.9312371 1.35319269,36.6898273 1.23825425,36.4295448 L0.323476562,36.8335024 C0.479386359,37.1865662 0.688204259,37.5136753 0.941986949,37.8038728 L1.69474372,37.1455741 Z M1.01611103,35.5979712 C1.00613508,35.504826 1.00075383,35.4108008 1.00003844,35.3161033 C0.999971029,35.1054376 1.01854553,34.9162073 1.05661211,34.7293151 L0.0767314128,34.529731 C0.0250940528,34.7832504 -5.41871761e-05,35.0394516 5.24014554e-05,35.320071 C0.00103217112,35.4514227 0.00830320654,35.5784675 0.021797468,35.7044632 L1.01611103,35.5979712 Z M1.35563363,33.9238591 C1.494491,33.6754516 1.67054392,33.4491746 1.87715961,33.2530787 L1.18875908,32.527748 C0.909181272,32.7930911 0.670885621,33.0993674 0.482752186,33.4359267 L1.35563363,33.9238591 Z M2.59164634,32.7590061 C2.8467325,32.6357715 3.11948997,32.5517243 3.40251003,32.5103388 L3.25782063,31.5208617 C2.87362728,31.5770415 2.50301473,31.6912417 2.15664091,31.8585782 L2.59164634,32.7590061 Z M4.40939877,32.4805669 L5.40939877,32.4805669 L5.40939877,31.4805669 L4.40939877,31.4805669 L4.40939877,32.4805669 Z M6.40939877,32.4805669 L7.40939877,32.4805669 L7.40939877,31.4805669 L6.40939877,31.4805669 L6.40939877,32.4805669 Z M8.40939877,32.4805669 L9.40939877,32.4805669 L9.40939877,31.4805669 L8.40939877,31.4805669 L8.40939877,32.4805669 Z M10.4093988,32.4805669 L11.4093988,32.4805669 L11.4093988,31.4805669 L10.4093988,31.4805669 L10.4093988,32.4805669 Z M12.4093988,32.4805669 L13.4093988,32.4805669 L13.4093988,31.4805669 L12.4093988,31.4805669 L12.4093988,32.4805669 Z M14.4093988,32.4805669 L15.4093988,32.4805669 L15.4093988,31.4805669 L14.4093988,31.4805669 L14.4093988,32.4805669 Z M16.4093988,32.4805669 L17.4093988,32.4805669 L17.4093988,31.4805669 L16.4093988,31.4805669 L16.4093988,32.4805669 Z M18.4093988,32.4805669 L18.7256298,32.4805669 C18.9906179,32.4805669 19.2524261,32.4534602 19.5080476,32.4001169 L19.3037673,31.4212044 C19.1152355,31.4605474 18.9218789,31.4805669 18.7256298,31.4805669 L18.4093988,31.4805669 L18.4093988,32.4805669 Z M20.6003516,31.9885938 C20.9359829,31.7988073 21.2411033,31.5590106 21.5050834,31.2781307 L20.7763948,30.5932855 C20.5813033,30.8008667 20.3558703,30.9780364 20.1081336,31.1181219 L20.6003516,31.9885938 Z M22.1693617,30.3072519 C22.3350074,29.9600845 22.4474059,29.5889117 22.5017287,29.2043725 L21.51156,29.0644941 C21.4715396,29.34779 21.3888181,29.6209606 21.2668323,29.8766237 L22.1693617,30.3072519 Z M22.475194,27.9668392 C22.4043842,27.5854978 22.2759951,27.2194562 22.0953551,26.8795182 L21.2122909,27.3487704 C21.3453623,27.5991913 21.4398603,27.868608 21.4920002,28.1494044 L22.475194,27.9668392 Z M21.355225,25.9046408 C21.0760542,25.6387967 20.7581035,25.4162803 20.4122169,25.2454762 L19.9694452,26.1421106 C20.2245755,26.2680978 20.4593524,26.4324055 20.6656147,26.6288214 L21.355225,25.9046408 Z M19.2933864,24.8950977 C19.1192694,24.8690767 18.9427932,24.8550456 18.7648591,24.8532474 L18.1868828,24.8530492 L18.1865815,25.8530492 L18.7596556,25.8532218 C18.886553,25.8545283 19.0170206,25.8649014 19.1455825,25.8841144 L19.2933864,24.8950977 Z M17.1867321,24.8530492 L16.1867321,24.8530492 L16.1867321,25.8530492 L17.1867321,25.8530492 L17.1867321,24.8530492 Z M15.1867321,24.8530492 L14.1867321,24.8530492 L14.1867321,25.8530492 L15.1867321,25.8530492 L15.1867321,24.8530492 Z" id="Stroke-607" fill="#F2F2F4"></path>
            <path d="M39.4362301,14.9121094 C46.575448,14.9121094 52.3628257,20.6992206 52.3628257,27.838705 C52.3628257,30.1964824 51.7224892,32.4627126 50.5322683,34.4524222 L50.3165395,34.8006393 L39.4362301,51.7036387 L28.5554507,34.7999078 C27.2275204,32.7290111 26.5096345,30.3351752 26.5096345,27.838705 C26.5096345,20.6992206 32.2970122,14.9121094 39.4362301,14.9121094 Z M39.4362301,15.9121094 C32.8492866,15.9121094 27.5096345,21.2515156 27.5096345,27.838705 C27.5096345,30.0061317 28.0958944,32.0885484 29.1864176,33.9191413 L29.39678,34.2593857 L39.4359562,49.856 L49.4752102,34.2601171 C50.5567834,32.5734124 51.1992949,30.6567843 51.3355042,28.6471805 L51.3559754,28.2440607 L51.3628257,27.838705 C51.3628257,21.2515156 46.0231735,15.9121094 39.4362301,15.9121094 Z M39.4362301,21.2844676 C42.9151204,21.2844676 45.735308,24.1046553 45.735308,27.5835455 C45.735308,31.0624358 42.9151204,33.8826235 39.4362301,33.8826235 C35.9573398,33.8826235 33.1371521,31.0624358 33.1371521,27.5835455 C33.1371521,24.1046553 35.9573398,21.2844676 39.4362301,21.2844676 Z M39.4362301,22.2844676 C36.5096246,22.2844676 34.1371521,24.65694 34.1371521,27.5835455 C34.1371521,30.5101511 36.5096246,32.8826235 39.4362301,32.8826235 C42.3628356,32.8826235 44.735308,30.5101511 44.735308,27.5835455 C44.735308,24.65694 42.3628356,22.2844676 39.4362301,22.2844676 Z" id="Stroke-609" fill="#F2F2F4"></path>
            <path d="M9.94843447,0 C14.9856198,0 19.0691781,4.08355822 19.0691781,9.1207436 C19.0691781,10.7638167 18.6276982,12.3444981 17.8068447,13.736861 L17.6251634,14.0322961 L9.94843447,25.9580012 L2.27117029,14.0314628 C1.33487182,12.5705844 0.82851931,10.8817697 0.82851931,9.1207436 C0.82851931,4.08341505 4.91139225,0 9.94843447,0 Z M9.94843447,1 C5.46370672,1 1.82851931,4.63567008 1.82851931,9.1207436 C1.82851931,10.5762827 2.21681729,11.9753225 2.93979815,13.209256 L3.1125566,13.4910296 L9.948,24.11 L16.7837771,13.4918629 C17.4992021,12.3756068 17.9325605,11.1126345 18.0417766,9.78787759 L18.0623034,9.45545033 L18.0691781,9.1207436 C18.0691781,4.63584297 14.4333351,1 9.94843447,1 Z M9.94843447,4.42138272 C12.4465784,4.42138272 14.4713377,6.44556601 14.4713377,8.9434575 C14.4713377,11.4414752 12.4464521,13.4663607 9.94843447,13.4663607 C7.4504168,13.4663607 5.42553125,11.4414752 5.42553125,8.9434575 C5.42553125,6.44556601 7.45029057,4.42138272 9.94843447,4.42138272 Z M9.94843447,5.42138272 C8.00251163,5.42138272 6.42553125,6.99791446 6.42553125,8.9434575 C6.42553125,10.8891904 8.00270155,12.4663607 9.94843447,12.4663607 C11.8941674,12.4663607 13.4713377,10.8891904 13.4713377,8.9434575 C13.4713377,6.99791446 11.8943573,5.42138272 9.94843447,5.42138272 Z" id="Stroke-611" fill="#E60012"></path>
        </g>
    </g>
</svg>