<?xml version="1.0" encoding="UTF-8"?>
<svg width="64px" height="64px" viewBox="0 0 64 64" version="1.1" xmlns="http://www.w3.org/2000/svg" xmlns:xlink="http://www.w3.org/1999/xlink">
    <title>umbrella</title>
    <g id="umbrella" stroke="none" stroke-width="1" fill="none" fill-rule="evenodd">
        <g id="icon" transform="translate(7.369202, 3.355114)" fill-rule="nonzero">
            <path d="M25.1539795,0 C25.3994394,0 25.6035879,0.176875161 25.6459239,0.410124368 L25.6539795,0.5 L25.6539795,52.91606 C25.6539795,55.0863131 23.8683146,56.84176 21.6697523,56.84176 C19.5400604,56.84176 17.7986304,55.1944691 17.6918708,53.1182796 L17.6866841,52.8431 C17.6866841,52.5669576 17.9105417,52.3431 18.1866841,52.3431 C18.432144,52.3431 18.6362925,52.5199752 18.6786284,52.7532244 L18.6866841,52.8431 L18.6866841,52.91606 C18.6866841,54.5304419 20.0199621,55.84176 21.6697523,55.84176 C23.2608833,55.84176 24.5582791,54.622184 24.6489207,53.087797 L24.6539795,52.91606 L24.6539795,0.5 C24.6539795,0.223857625 24.8778372,0 25.1539795,0 Z" id="Stroke-1" fill="#F2F2F4"></path>
            <path d="M24.7208044,2.01144082 C24.9626826,1.87821335 25.2667658,1.96629215 25.3999933,2.20817033 C25.5332207,2.4500485 25.4451419,2.75413171 25.2032638,2.88735918 C20.7710575,5.32863619 17.7102103,9.23095797 15.8067135,14.2067838 C14.7641285,16.9321475 14.1200184,19.8498344 13.8009279,22.8155285 C13.6010134,24.6735768 13.5482743,26.3321038 13.5845621,27.6800593 L13.6137766,28.3839845 C13.6149629,28.4024203 13.6160599,28.4182427 13.6170463,28.4314114 C13.6376734,28.7067823 13.4311627,28.9467361 13.1557918,28.9673631 C12.8804209,28.9879902 12.6404671,28.7814795 12.61984,28.5061086 L12.5974329,28.0801549 C12.5388415,26.6258259 12.5829405,24.7879073 12.8066664,22.7085521 C13.1344103,19.662431 13.7967711,16.6620724 14.8727227,13.8494866 C16.8552615,8.66704174 20.0636458,4.57662245 24.7208044,2.01144082 Z" id="Stroke-3" fill="#F2F2F4"></path>
            <path d="M24.4250885,2.20817033 C24.558316,1.96629215 24.8623992,1.87821335 25.1042774,2.01144082 C29.693357,4.53912428 32.9780415,8.47531844 35.1474727,13.4260928 C36.4591227,16.419358 37.2916188,19.6186051 37.7400962,22.8395031 C37.9029667,24.0092148 38.0048804,25.1145094 38.0574657,26.1323611 L38.0814088,26.681355 L38.094148,27.1615587 L38.0973001,27.5697438 L38.0942994,27.8218005 C38.0864346,28.0978308 37.8562921,28.315222 37.5802618,28.307564 C37.3349015,28.3003662 37.1358734,28.1177485 37.1001978,27.8833881 L37.0950378,27.7792849 L37.0973146,27.5642996 L37.0942343,27.1747865 L37.0819274,26.7135848 L37.0587975,26.1839553 C37.0076558,25.1940444 36.9083851,24.117415 36.7496513,22.9774125 C36.3130164,19.8415654 35.5031711,16.7293644 34.2315511,13.82745 C32.1450949,9.06602976 29.0027287,5.30038233 24.6218181,2.88735918 C24.3799399,2.75413171 24.2918611,2.4500485 24.4250885,2.20817033 Z" id="Stroke-5" fill="#F2F2F4"></path>
            <path d="M25.8748182,1.949172 L24.2045682,1.949172 C10.8315087,1.949172 0,13.258586 0,27.199712 L0,27.750332 C0,28.5191894 0.900012891,28.9395023 1.46912786,28.4090808 L3.65864525,26.3684857 C5.52501329,25.0326287 8.05006063,25.0326287 9.96676385,26.4088601 L12.7913366,28.8471876 C13.1017719,29.1122555 13.5573228,29.0875356 13.8351274,28.7909822 L15.9608941,26.5063271 C17.8084119,25.0221558 20.4248848,24.9193044 22.4281525,26.2982863 L25.0265402,28.5874466 L28.3079612,25.9186565 C29.9910373,24.891748 32.1406058,24.8810821 33.8865095,25.9287093 L36.9870116,28.2177375 C37.2643236,28.4231392 37.6438947,28.4132368 37.9113355,28.1940402 L40.5882501,25.9933693 C42.3292983,24.9308467 44.5626321,24.961306 46.333945,26.1119324 L48.659577,27.9765278 C49.2414283,28.4418298 50.0782273,28.012516 50.0782273,27.274952 L50.0782273,27.199712 C50.0782273,13.2583623 39.2476644,1.949172 25.8748182,1.949172 Z M25.8748182,2.949172 L26.2584045,2.9524193 C38.7646751,3.1643052 48.872201,13.7187166 49.0751174,26.798529 L49.077,27.029 L46.9187639,25.3022762 L46.6881369,25.1585767 C44.5956359,23.9118801 42.0594575,23.9232081 40.0092702,25.1809393 L37.426,27.298 L34.4405112,25.0975465 L34.2048317,24.9621637 C32.1472575,23.8344143 29.70993,23.891086 27.7311034,25.1045083 L25.051,27.278 L23.0418039,25.5109265 L22.8134457,25.3599254 C20.4339012,23.8536623 17.4543432,24.022919 15.280869,25.7766026 L13.265,27.935 L10.5849134,25.6240564 L10.3526316,25.4641666 C8.08588741,23.9718426 5.21469694,24.0242554 3.02602079,25.5966405 L1,27.479 L1,27.199712 C1,13.8014426 11.393683,2.949172 24.2045682,2.949172 L25.8748182,2.949172 Z" id="Stroke-7" fill="#F2F2F4"></path>
            <g id="$" transform="translate(4.068798, 34.035297)" fill="#E60012">
                <path d="M4.4825,1.8783875 C7.07558918,1.8783875 8.91,3.26206201 8.91,5.5561375 C8.91,5.83227987 8.68614237,6.0561375 8.41,6.0561375 C8.13385763,6.0561375 7.91,5.83227987 7.91,5.5561375 C7.91,3.88549592 6.57482285,2.8783875 4.4825,2.8783875 C2.37543286,2.8783875 1,3.89606466 1,5.5561375 C1,6.65984648 1.37455683,7.19417241 2.51379729,7.82842442 L2.64600586,7.90070252 L2.93893451,8.05304812 L3.68590243,8.4146698 L5.91010485,9.46111818 L6.3037076,9.65154734 L6.63804143,9.82056204 L6.93110824,9.97792763 C8.36755393,10.7765238 8.9625,11.6233707 8.9625,13.1252625 C8.9625,15.4093935 7.09403086,16.7768875 4.4825,16.7768875 C1.87040383,16.7768875 0,15.4091648 0,13.1252625 C0,12.8491201 0.223857625,12.6252625 0.5,12.6252625 C0.776142375,12.6252625 1,12.8491201 1,13.1252625 C1,14.7771667 2.36714969,15.7768875 4.4825,15.7768875 C6.59717759,15.7768875 7.9625,14.7776362 7.9625,13.1252625 C7.9625,12.021208 7.58700414,11.4867268 6.44519992,10.8519374 L6.17252633,10.7056285 L5.8564296,10.5459675 L4.96948797,10.1235101 L3.05077823,9.22061082 L2.65627187,9.02963748 L2.32111694,8.8600648 L2.02736886,8.70214485 C0.593600802,7.90391979 0,7.05711558 0,5.5561375 C0,3.26732482 1.87720634,1.8783875 4.4825,1.8783875 Z" id="Stroke-1"></path>
                <path d="M4.482,0 C4.72745989,0 4.93160837,0.176875161 4.97394433,0.410124368 L4.982,0.5 L4.982,2.155375 C4.982,2.43151737 4.75814237,2.655375 4.482,2.655375 C4.23654011,2.655375 4.03239163,2.47849984 3.99005567,2.24525063 L3.982,2.155375 L3.982,0.5 C3.982,0.223857625 4.20585763,0 4.482,0 Z" id="Stroke-3"></path>
                <path d="M4.482,16.0010875 C4.72745989,16.0010875 4.93160837,16.1779627 4.97394433,16.4112119 L4.982,16.5010875 L4.982,18.1540875 C4.982,18.4302299 4.75814237,18.6540875 4.482,18.6540875 C4.23654011,18.6540875 4.03239163,18.4772123 3.99005567,18.2439631 L3.982,18.1540875 L3.982,16.5010875 C3.982,16.2249451 4.20585763,16.0010875 4.482,16.0010875 Z" id="Stroke-5"></path>
            </g>
        </g>
    </g>
</svg>