<?xml version="1.0" encoding="UTF-8"?>
<svg width="64px" height="64px" viewBox="0 0 64 64" version="1.1" xmlns="http://www.w3.org/2000/svg" xmlns:xlink="http://www.w3.org/1999/xlink">
    <title>timer</title>
    <g id="timer" stroke="none" stroke-width="1" fill="none" fill-rule="evenodd">
        <g id="icon" transform="translate(1.111353, 2.116753)" fill-rule="nonzero">
            <path d="M15.6789053,28.8801803 C15.9550476,28.8801803 16.1789053,29.1040379 16.1789053,29.3801803 C16.1789053,29.6256402 16.0020301,29.8297887 15.7687809,29.8721247 L15.6789053,29.8801803 L9.21295789,29.8801803 C8.93681552,29.8801803 8.71295789,29.6563227 8.71295789,29.3801803 C8.71295789,29.1347204 8.88983306,28.930572 9.12308226,28.888236 L9.21295789,28.8801803 L15.6789053,28.8801803 Z" id="Stroke-1" fill="#F2F2F4"></path>
            <path d="M6.45036842,28.8801803 C6.7265108,28.8801803 6.95036842,29.1040379 6.95036842,29.3801803 C6.95036842,29.6256402 6.77349326,29.8297887 6.54024405,29.8721247 L6.45036842,29.8801803 L4.71763158,29.8801803 C4.4414892,29.8801803 4.21763158,29.6563227 4.21763158,29.3801803 C4.21763158,29.1347204 4.39450674,28.930572 4.62775595,28.888236 L4.71763158,28.8801803 L6.45036842,28.8801803 Z" id="Stroke-2" fill="#F2F2F4"></path>
            <path d="M2.23273684,28.8801803 C2.50887922,28.8801803 2.73273684,29.1040379 2.73273684,29.3801803 C2.73273684,29.6256402 2.55586168,29.8297887 2.32261247,29.8721247 L2.23273684,29.8801803 L0.5,29.8801803 C0.223857625,29.8801803 0,29.6563227 0,29.3801803 C0,29.1347204 0.176875161,28.930572 0.410124368,28.888236 L0.5,28.8801803 L2.23273684,28.8801803 Z" id="Stroke-3" fill="#F2F2F4"></path>
            <path d="M17.8738684,37.3838127 C18.1500108,37.3838127 18.3738684,37.6076704 18.3738684,37.8838127 C18.3738684,38.1292726 18.1969933,38.3334211 17.9637441,38.3757571 L17.8738684,38.3838127 L10.0015,38.3838127 C9.72535763,38.3838127 9.5015,38.1599551 9.5015,37.8838127 C9.5015,37.6383528 9.67837516,37.4342044 9.91162437,37.3918684 L10.0015,37.3838127 L17.8738684,37.3838127 Z" id="Stroke-5" fill="#F2F2F4"></path>
            <path d="M7.23907368,37.3838127 C7.51521606,37.3838127 7.73907368,37.6076704 7.73907368,37.8838127 C7.73907368,38.1292726 7.56219852,38.3334211 7.32894932,38.3757571 L7.23907368,38.3838127 L5.50633684,38.3838127 C5.23019447,38.3838127 5.00633684,38.1599551 5.00633684,37.8838127 C5.00633684,37.6383528 5.183212,37.4342044 5.41646121,37.3918684 L5.50633684,37.3838127 L7.23907368,37.3838127 Z" id="Stroke-6" fill="#F2F2F4"></path>
            <path d="M17.9430474,20.3773703 C18.2191897,20.3773703 18.4430474,20.6012279 18.4430474,20.8773703 C18.4430474,21.1228301 18.2661722,21.3269786 18.032923,21.3693146 L17.9430474,21.3773703 L10.0723105,21.3773703 C9.79616815,21.3773703 9.57231053,21.1535126 9.57231053,20.8773703 C9.57231053,20.6319104 9.74918569,20.4277619 9.98243489,20.3854259 L10.0723105,20.3773703 L17.9430474,20.3773703 Z" id="Stroke-7" fill="#F2F2F4"></path>
            <path d="M7.30923158,20.3773703 C7.58537395,20.3773703 7.80923158,20.6012279 7.80923158,20.8773703 C7.80923158,21.1228301 7.63235642,21.3269786 7.39910721,21.3693146 L7.30923158,21.3773703 L5.57649474,21.3773703 C5.30035236,21.3773703 5.07649474,21.1535126 5.07649474,20.8773703 C5.07649474,20.6319104 5.2533699,20.4277619 5.4866191,20.3854259 L5.57649474,20.3773703 L7.30923158,20.3773703 Z" id="Stroke-8" fill="#F2F2F4"></path>
            <g id="Group-31" transform="translate(15.543889, 0.000000)" fill="#F2F2F4">
                <path d="M19.782,9.44323576 C30.708357,9.44323576 39.564,18.3699646 39.564,29.3800159 C39.564,31.5705914 39.2138449,33.7125973 38.5348217,35.745433 C38.4473342,36.00735 38.1640858,36.1487531 37.9021688,36.0612656 C37.6402517,35.9737781 37.4988486,35.6905297 37.5863362,35.4286126 C38.2313308,33.4976502 38.564,31.4626112 38.564,29.3800159 C38.564,18.9204676 30.1542746,10.4432358 19.782,10.4432358 C13.4122099,10.4432358 7.5856336,13.6641177 4.12520336,18.915378 C2.09834572,21.9915846 1,25.6036503 1,29.3800159 C1,39.840961 9.40947974,48.3184406 19.782,48.3184406 C21.3170508,48.3184406 22.8269891,48.1333634 24.2834747,47.7707706 C24.5514382,47.704061 24.8227443,47.8672095 24.889454,48.135173 C24.9561636,48.4031365 24.7930151,48.6744426 24.5250516,48.7411523 C22.9895366,49.1234195 21.3984716,49.3184406 19.782,49.3184406 C8.85538414,49.3184406 0,40.391451 0,29.3800159 C0,25.4066954 1.15643471,21.6035958 3.29018218,18.3651602 C6.93343885,12.8364577 13.0717783,9.44323576 19.782,9.44323576 Z" id="Stroke-9"></path>
                <path d="M36.3524789,28.8801803 C36.6286213,28.8801803 36.8524789,29.1040379 36.8524789,29.3801803 C36.8524789,29.6256402 36.6756038,29.8297887 36.4423546,29.8721247 L36.3524789,29.8801803 L33.9034789,29.8801803 C33.6273366,29.8801803 33.4034789,29.6563227 33.4034789,29.3801803 C33.4034789,29.1347204 33.5803541,28.930572 33.8136033,28.888236 L33.9034789,28.8801803 L36.3524789,28.8801803 Z" id="Stroke-11"></path>
                <path d="M5.66003158,28.8801803 C5.93617395,28.8801803 6.16003158,29.1040379 6.16003158,29.3801803 C6.16003158,29.6256402 5.98315642,29.8297887 5.74990721,29.8721247 L5.66003158,29.8801803 L3.21266316,29.8801803 C2.93652078,29.8801803 2.71266316,29.6563227 2.71266316,29.3801803 C2.71266316,29.1347204 2.88953832,28.930572 3.12278753,28.888236 L3.21266316,28.8801803 L5.66003158,28.8801803 Z" id="Stroke-13"></path>
                <path d="M19.7818368,12.1780029 C20.0272967,12.1780029 20.2314452,12.3548781 20.2737812,12.5881273 L20.2818368,12.6780029 L20.2818368,15.1450168 C20.2818368,15.4211592 20.0579792,15.6450168 19.7818368,15.6450168 C19.536377,15.6450168 19.3322285,15.4681416 19.2898925,15.2348924 L19.2818368,15.1450168 L19.2818368,12.6780029 C19.2818368,12.4018605 19.5056945,12.1780029 19.7818368,12.1780029 Z" id="Stroke-15"></path>
                <path d="M19.7818368,43.1143571 C20.0272967,43.1143571 20.2314452,43.2912322 20.2737812,43.5244814 L20.2818368,43.6143571 L20.2818368,46.0830156 C20.2818368,46.359158 20.0579792,46.5830156 19.7818368,46.5830156 C19.536377,46.5830156 19.3322285,46.4061405 19.2898925,46.1728913 L19.2818368,46.0830156 L19.2818368,43.6143571 C19.2818368,43.3382147 19.5056945,43.1143571 19.7818368,43.1143571 Z" id="Stroke-17"></path>
                <path d="M33.7744199,20.426555 C34.0114083,20.284812 34.3184308,20.3620236 34.4601739,20.599012 C34.5861678,20.8096683 34.5391604,21.0756603 34.3607143,21.2317196 L34.287717,21.284766 L32.1813486,22.5445878 C31.9443601,22.6863309 31.6373376,22.6091193 31.4955945,22.3721309 C31.3696007,22.1614745 31.416608,21.8954825 31.5950541,21.7394232 L31.6680514,21.6863768 L33.7744199,20.426555 Z" id="Stroke-19"></path>
                <path d="M7.38273111,36.2159205 C7.619638,36.0740412 7.92670488,36.1510763 8.06858418,36.3879831 C8.19469912,36.5985671 8.14784467,36.864586 7.96948832,37.0207479 L7.89652152,37.0738362 L5.7901531,38.3353027 C5.55324621,38.477182 5.24617933,38.4001469 5.10430003,38.16324 C4.97818509,37.9526561 5.02503954,37.6866371 5.20339589,37.5304752 L5.27636269,37.4773869 L7.38273111,36.2159205 Z" id="Stroke-21"></path>
                <path d="M11.0715688,14.5864941 C11.2831041,14.4619815 11.5487597,14.5108542 11.703563,14.690391 L11.7560959,14.7637588 L13.0058853,16.8870354 C13.1459619,17.1250126 13.0665978,17.4314858 12.8286206,17.5715624 C12.6170853,17.696075 12.3514298,17.6472022 12.1966264,17.4676654 L12.1440936,17.3942977 L10.8943041,15.2710211 C10.7542275,15.0330439 10.8335916,14.7265707 11.0715688,14.5864941 Z" id="Stroke-23"></path>
                <path d="M27.6576201,14.6804936 C27.7953597,14.4411562 28.101041,14.3587948 28.3403785,14.4965344 C28.5531229,14.6189695 28.6418368,14.8740994 28.5621857,15.0973778 L28.5243378,15.1792927 L27.2957588,17.3140821 C27.1580192,17.5534195 26.8523379,17.6357809 26.6130004,17.4980413 C26.400256,17.3756062 26.3115421,17.1204763 26.3911933,16.8971979 L26.4290412,16.815283 L27.6576201,14.6804936 Z" id="Stroke-25"></path>
                <path d="M12.2676687,41.4456005 C12.4053286,41.2062172 12.7109825,41.1237541 12.9503658,41.261414 C13.163151,41.3837783 13.2519498,41.6388787 13.172373,41.8621835 L13.1345523,41.9441111 L11.9059734,44.0805451 C11.7683135,44.3199284 11.4626596,44.4023915 11.2232763,44.2647316 C11.0104911,44.1423673 10.9216923,43.8872669 11.0012691,43.6639621 L11.0390898,43.5820345 L12.2676687,41.4456005 Z" id="Stroke-27"></path>
                <path d="M5.01484046,20.7517735 C5.13874923,20.539884 5.3944887,20.4529429 5.61720884,20.5341418 L5.69885915,20.5725573 L7.81664862,21.8109983 C8.05502435,21.9503957 8.13526216,22.2566413 7.9958648,22.495017 C7.87195604,22.7069065 7.61621657,22.7938476 7.39349642,22.7126487 L7.31184612,22.6742332 L5.19405664,21.4357922 C4.95568092,21.2963948 4.8754431,20.9901492 5.01484046,20.7517735 Z" id="Stroke-29"></path>
                <path d="M19.5837632,27.9955091 C18.8090904,27.9955091 18.1815,28.6281373 18.1815,29.4050149 C18.1815,30.1831082 18.8086674,30.8145207 19.5837632,30.8145207 C20.3588589,30.8145207 20.9860263,30.1831082 20.9860263,29.4050149 C20.9860263,28.6281373 20.3584359,27.9955091 19.5837632,27.9955091 Z M19.5837632,28.9955091 C19.8043535,28.9955091 19.9860263,29.1786402 19.9860263,29.4050149 C19.9860263,29.6323279 19.8050584,29.8145207 19.5837632,29.8145207 C19.3624679,29.8145207 19.1815,29.6323279 19.1815,29.4050149 C19.1815,29.1786402 19.3631728,28.9955091 19.5837632,28.9955091 Z" id="Stroke-32"></path>
                <path d="M33.5019474,28.9050149 C33.7780897,28.9050149 34.0019474,29.1288726 34.0019474,29.4050149 C34.0019474,29.6504748 33.8250722,29.8546233 33.591823,29.8969593 L33.5019474,29.9050149 L20.4852105,29.9050149 C20.2090682,29.9050149 19.9852105,29.6811573 19.9852105,29.4050149 C19.9852105,29.159555 20.1620857,28.9554066 20.3953349,28.9130706 L20.4852105,28.9050149 L33.5019474,28.9050149 Z" id="Stroke-34"></path>
                <path d="M24.4254737,0 C24.6709336,0 24.8750821,0.176875161 24.917418,0.410124368 L24.9254737,0.5 L24.9254737,5.85835417 C24.9254737,6.10381406 24.7485985,6.30796254 24.5153493,6.3502985 L24.4254737,6.35835417 L21.4674211,6.35835417 C21.1912787,6.35835417 20.9674211,6.13449654 20.9674211,5.85835417 C20.9674211,5.61289428 21.1442962,5.4087458 21.3775454,5.36640984 L21.4674211,5.35835417 L23.9252761,5.35747269 L23.9252761,0.999472685 L14.1552761,0.999472685 L14.1552761,5.35747269 L16.6118421,5.35835417 C16.857302,5.35835417 17.0614505,5.53522933 17.1037864,5.76847853 L17.1118421,5.85835417 C17.1118421,6.10381406 16.9349669,6.30796254 16.7017177,6.3502985 L16.6118421,6.35835417 L13.6554211,6.35835417 C13.4099612,6.35835417 13.2058127,6.18147901 13.1634767,5.9482298 L13.1554211,5.85835417 L13.1554211,0.5 C13.1554211,0.254540111 13.3322962,0.0503916296 13.5655454,0.00805566941 L13.6554211,0 L24.4254737,0 Z" id="Stroke-36"></path>
                <path d="M21.4675842,5.35835417 C21.7130441,5.35835417 21.9171926,5.53522933 21.9595285,5.76847853 L21.9675842,5.85835417 L21.9675842,7.66256366 C21.9675842,7.90802355 21.790709,8.11217203 21.5574598,8.15450799 L21.4675842,8.16256366 L16.6120053,8.16256366 C16.3665454,8.16256366 16.1623969,7.9856885 16.1200609,7.75243929 L16.1120053,7.66256366 L16.1120053,5.85835417 C16.1120053,5.58221179 16.3358629,5.35835417 16.6120053,5.35835417 C16.8574652,5.35835417 17.0616136,5.53522933 17.1039496,5.76847853 L17.1120053,5.85835417 L17.1112761,7.16247269 L20.9672761,7.16247269 L20.9675842,5.85835417 C20.9675842,5.61289428 21.1444594,5.4087458 21.3777086,5.36640984 L21.4675842,5.35835417 Z" id="Stroke-38"></path>
                <path d="M32.1218598,7.07517846 C32.2697259,6.87757842 32.5355271,6.82070413 32.747991,6.92853832 L32.8248303,6.97674369 L37.0359356,10.1789277 C37.2302575,10.3266929 37.2863067,10.589191 37.1807981,10.8001341 L37.1336139,10.8764963 L35.5656666,12.9718134 C35.4178793,13.1693081 35.1522624,13.2262423 34.9398319,13.1186033 L34.8629976,13.0704773 L33.7062081,12.1922204 C33.4862713,12.0252401 33.4433415,11.7115819 33.6103218,11.491645 C33.7587487,11.2961457 34.0230694,11.2405037 34.2344435,11.347828 L34.3108972,11.3957588 L35.0662761,11.9694727 L36.0352761,10.6734727 L32.6202761,8.07747269 L31.6512761,9.37247269 L32.4137296,9.95200596 C32.6090952,10.100609 32.6644989,10.3649797 32.5569841,10.576257 L32.5089845,10.6526675 C32.3603814,10.848033 32.0960107,10.9034367 31.8847334,10.7959219 L31.808323,10.7479223 L30.6515335,9.86802066 C30.4572526,9.72024263 30.40123,9.45777116 30.5067322,9.24684994 L30.5539124,9.17049559 L32.1218598,7.07517846 Z" id="Stroke-40"></path>
                <path d="M31.7110417,10.0499967 C31.8766183,9.82900125 32.1899969,9.78407534 32.4109924,9.94965191 C32.6074328,10.0968311 32.6647566,10.3607921 32.5587803,10.5728453 L32.5113372,10.6496026 L32.2802761,10.9574727 L33.3822761,11.7954727 L33.608124,11.4946158 C33.7550117,11.2979574 34.0188875,11.2402423 34.2310975,11.3459041 L34.3079251,11.3932333 C34.5045835,11.5401211 34.5622986,11.8039968 34.4566368,12.0162069 L34.4093076,12.0930344 L33.8823076,12.7986004 C33.7345293,12.9964512 33.4685715,13.0534953 33.2559737,12.9456312 L33.1790858,12.897405 L31.2799279,11.4533795 C31.085513,11.3055561 31.0295024,11.0429081 31.1351635,10.8319316 L31.1824102,10.7555627 L31.7110417,10.0499967 Z" id="Stroke-42"></path>
            </g>
            <g id="Group-54" transform="translate(39.443584, 34.719931)" fill="#E60012">
                <path d="M11.3614211,0 C5.08506407,0 0,5.12588279 0,11.4486076 C0,15.3317217 1.93092374,18.8830091 5.08065289,20.9920235 C6.92787205,22.2286772 9.09607659,22.89886 11.3614211,22.89886 C17.637778,22.89886 22.7244737,17.7713325 22.7244737,11.4486076 C22.7244737,5.12617347 17.6380659,0 11.3614211,0 Z M11.3614211,1 C17.0840303,1 21.7244737,5.67672245 21.7244737,11.4486076 C21.7244737,17.2208296 17.0836956,21.89886 11.3614211,21.89886 C9.29586189,21.89886 7.32094823,21.2884226 5.63699741,20.1610718 C2.76219027,18.2361412 1,14.9951826 1,11.4486076 C1,5.67638572 5.63914646,1 11.3614211,1 Z" id="Stroke-48"></path>
                <path d="M15.8157243,7.82081498 C16.0050925,7.61983164 16.3215349,7.61041571 16.5225183,7.79978389 C16.7011701,7.96811117 16.7284601,8.23684279 16.5993196,8.43563983 L16.5435494,8.50657785 L10.0955494,15.3500744 C9.90618117,15.5510577 9.58973874,15.5604736 9.38875541,15.3711055 C9.21010355,15.2027782 9.1828136,14.9340466 9.31195407,14.7352495 L9.36772432,14.6643115 L15.8157243,7.82081498 Z" id="Stroke-50"></path>
                <path d="M6.39338382,11.6409919 C6.56764262,11.4681208 6.83714196,11.4499128 7.0314689,11.5856867 L7.10048495,11.6438186 L10.087906,14.6552202 C10.282386,14.8512613 10.2811205,15.1678413 10.0850793,15.3623213 C9.91082054,15.5351924 9.6413212,15.5534004 9.44699426,15.4176264 L9.37797821,15.3594946 L6.39055715,12.348093 C6.19607713,12.1520519 6.19734267,11.8354719 6.39338382,11.6409919 Z" id="Stroke-52"></path>
            </g>
        </g>
    </g>
</svg>