<svg width="364" height="38" viewBox="0 0 364 38" fill="none" xmlns="http://www.w3.org/2000/svg">
<g clip-path="url(#clip0)">
<path d="M364.079 0H18.9949V38H364.079V0Z" fill="#E60012"/>
<path d="M18.9949 37.9898C29.4855 37.9898 37.9898 29.4855 37.9898 18.9949C37.9898 8.50431 29.4855 0 18.9949 0C8.50431 0 0 8.50431 0 18.9949C0 29.4855 8.50431 37.9898 18.9949 37.9898Z" fill="#231815"/>
<path d="M19.1268 32.8555C26.6697 32.8555 32.7845 26.7408 32.7845 19.1978C32.7845 11.6549 26.6697 5.54016 19.1268 5.54016C11.5839 5.54016 5.46912 11.6549 5.46912 19.1978C5.46912 26.7408 11.5839 32.8555 19.1268 32.8555Z" fill="white"/>
<path d="M25.9708 24.3136L14.0748 12.4176L2.12492 24.3675L14.0209 36.2635L25.9708 24.3136Z" fill="#231815"/>
<path d="M23.5204 12.8561H15.1696V25.7832H23.5204V12.8561Z" fill="#231815"/>
<path d="M27.295 19.1978C27.3445 20.8604 26.9709 22.5084 26.2093 23.9871C25.5346 25.243 24.5132 26.2785 23.2667 26.9703C21.9929 27.6579 20.564 28.0073 19.1167 27.985C17.6656 28.0118 16.2323 27.6622 14.9565 26.9703C13.7157 26.2777 12.7011 25.2419 12.0342 23.9871C11.2726 22.512 10.8989 20.8673 10.9485 19.2079C10.8982 17.542 11.2717 15.8906 12.0342 14.4085C12.7045 13.1588 13.7185 12.1272 14.9565 11.4354C16.2341 10.7483 17.6661 10.399 19.1167 10.4208C20.564 10.3989 21.9928 10.7483 23.2667 11.4354C24.5104 12.1264 25.5312 13.1577 26.2093 14.4085C26.9701 15.8875 27.3436 17.5353 27.295 19.1978ZM23.0638 19.1978C23.1656 17.8385 22.8083 16.4843 22.0491 15.3521C21.7049 14.9176 21.2621 14.5713 20.7575 14.342C20.2528 14.1126 19.7008 14.0067 19.1471 14.033C18.5916 14.0042 18.0373 14.1089 17.5306 14.3384C17.0239 14.5679 16.5796 14.9156 16.235 15.3521C15.4758 16.4843 15.1184 17.8385 15.2203 19.1978C15.1208 20.5537 15.478 21.904 16.235 23.0333C16.5771 23.465 17.0166 23.8095 17.5175 24.0388C18.0183 24.268 18.5663 24.3755 19.1167 24.3524C19.6703 24.3779 20.222 24.2717 20.7265 24.0423C21.231 23.813 21.6739 23.4672 22.0187 23.0333C22.7864 21.9078 23.1544 20.5572 23.0638 19.1978Z" fill="white"/>
<path d="M42.901 30.816V6.84908H47.9744C49.9048 6.78567 51.833 7.02883 53.6871 7.56951C55.1997 8.04943 56.5863 8.86057 57.7459 9.94387C58.9737 11.0665 59.942 12.4434 60.5834 13.9785C61.2248 15.5136 61.5238 17.1701 61.4596 18.8325C61.5182 21.3197 60.7798 23.7603 59.3521 25.7977C57.9244 27.8352 55.8825 29.3625 53.5248 30.1564C51.6926 30.6639 49.7931 30.8863 47.8933 30.816H42.901ZM46.5133 27.3965H48.1469C49.5178 27.4347 50.8864 27.2636 52.2057 26.8891C53.889 26.3209 55.3432 25.2232 56.3509 23.76C57.3586 22.2969 57.8658 20.5469 57.7966 18.7716C57.8403 17.5793 57.6273 16.3916 57.1722 15.2887C56.717 14.1858 56.0303 13.1936 55.1584 12.3791C53.562 10.9586 51.2248 10.2483 48.1469 10.2483H46.5133V27.3965Z" fill="white"/>
<path d="M64.6052 23.1551C64.5917 22.1119 64.7948 21.0773 65.2018 20.1166C65.6087 19.156 66.2106 18.2903 66.9694 17.5743C68.5095 16.0953 70.562 15.2694 72.6973 15.2694C74.8325 15.2694 76.885 16.0953 78.4252 17.5743C79.1814 18.3115 79.7779 19.1964 80.1776 20.1739C80.5774 21.1514 80.7718 22.2007 80.7488 23.2565C80.7737 24.316 80.5781 25.369 80.1746 26.3489C79.7712 27.3288 79.1685 28.2142 78.4049 28.9489C77.6422 29.6964 76.7374 30.2836 75.7441 30.6757C74.7507 31.0678 73.6888 31.257 72.6212 31.232C71.5618 31.259 70.5083 31.0665 69.5269 30.6666C68.5455 30.2667 67.6575 29.6681 66.9186 28.9083C66.1618 28.1573 65.5662 27.2596 65.1684 26.2704C64.7706 25.2811 64.5789 24.221 64.6052 23.1551ZM68.1769 23.2159C68.103 24.5209 68.5355 25.8039 69.3843 26.7978C69.8019 27.244 70.3109 27.5946 70.8766 27.8258C71.4423 28.057 72.0512 28.1632 72.6618 28.1372C73.2703 28.1618 73.8771 28.057 74.4421 27.8296C75.0071 27.6022 75.5174 27.2574 75.9392 26.8181C76.7579 25.8487 77.1785 24.605 77.1162 23.3377C77.1788 22.0511 76.7427 20.7898 75.8986 19.8167C75.4789 19.374 74.9692 19.0263 74.4039 18.797C73.8386 18.5677 73.2307 18.4622 72.6212 18.4875C72.0163 18.4633 71.4133 18.5694 70.853 18.7988C70.2928 19.0281 69.7884 19.3753 69.3742 19.8167C68.5533 20.754 68.1246 21.9712 68.1769 23.2159Z" fill="white"/>
<path d="M87.9123 15.6971V24.3524C87.9123 26.8485 88.927 28.1068 90.8853 28.1068C92.8436 28.1068 93.8482 26.8485 93.8482 24.3524V15.6971H97.3387V24.4539C97.3592 25.5162 97.2085 26.5749 96.8922 27.5893C96.5764 28.4159 96.0563 29.149 95.3804 29.7201C94.0943 30.7132 92.5153 31.2519 90.8904 31.2519C89.2655 31.2519 87.6865 30.7132 86.4004 29.7201C85.7159 29.1502 85.1856 28.4175 84.8581 27.5893C84.5229 26.5794 84.375 25.5169 84.4218 24.4539V15.6971H87.9123Z" fill="white"/>
<path d="M105.243 4.60669V17.4526C105.839 16.7793 106.57 16.2383 107.388 15.8643C108.206 15.4903 109.093 15.2917 109.992 15.2812C110.953 15.2657 111.906 15.4622 112.783 15.8568C113.66 16.2514 114.439 16.8343 115.065 17.5642C116.439 19.1195 117.166 21.1419 117.095 23.216C117.177 25.3286 116.452 27.3933 115.065 28.9896C114.429 29.7216 113.639 30.304 112.751 30.6951C111.864 31.0863 110.901 31.2766 109.931 31.2523C109.053 31.2485 108.185 31.0668 107.379 30.7179C106.573 30.3691 105.847 29.8606 105.243 29.223V30.8059H101.753V4.60669H105.243ZM113.543 23.3378C113.597 22.0531 113.179 20.7933 112.366 19.7965C112.004 19.355 111.546 19.0007 111.028 18.7601C110.51 18.5194 109.944 18.3985 109.373 18.4064C108.783 18.3853 108.196 18.4954 107.654 18.7287C107.111 18.9621 106.628 19.313 106.238 19.7559C105.411 20.7181 104.983 21.9592 105.04 23.2262C104.977 24.509 105.397 25.7689 106.217 26.7573C106.603 27.1979 107.081 27.5475 107.618 27.7809C108.155 28.0142 108.737 28.1255 109.322 28.1068C109.898 28.1215 110.47 28.008 110.996 27.7746C111.523 27.5412 111.991 27.1937 112.366 26.7573C113.177 25.8071 113.597 24.5854 113.543 23.3378Z" fill="white"/>
<path d="M124.299 4.60669V30.816H120.809V4.60669H124.299Z" fill="white"/>
<path d="M142.493 24.0785H131.666C131.714 25.1886 132.161 26.2442 132.924 27.0515C133.283 27.4121 133.712 27.6946 134.186 27.8815C134.659 28.0683 135.165 28.1554 135.674 28.1372C136.438 28.1632 137.191 27.9465 137.825 27.5182C138.586 26.8637 139.231 26.0849 139.733 25.2149L142.685 26.8587C142.278 27.5841 141.795 28.2643 141.244 28.8881C140.762 29.4138 140.213 29.8743 139.611 30.2579C139.028 30.611 138.395 30.8743 137.734 31.0392C137.015 31.2071 136.28 31.2888 135.542 31.2827C134.535 31.3267 133.53 31.1559 132.594 30.7815C131.658 30.4071 130.812 29.8377 130.113 29.1113C128.702 27.5176 127.973 25.4332 128.084 23.3073C127.998 21.1849 128.723 19.1095 130.113 17.5033C131.518 16.11 133.414 15.3233 135.393 15.3119C137.371 15.3005 139.276 16.0654 140.697 17.4424C142.063 19.0726 142.752 21.164 142.624 23.287L142.493 24.0785ZM138.911 21.2272C138.776 20.4074 138.341 19.6671 137.69 19.1511C137.039 18.6351 136.219 18.3804 135.39 18.4368C134.983 18.4323 134.578 18.4976 134.192 18.6296C133.823 18.7523 133.479 18.9414 133.178 19.1877C132.871 19.4361 132.604 19.7304 132.386 20.0603C132.166 20.4238 131.999 20.8167 131.889 21.2272H138.911Z" fill="white"/>
<path d="M155.602 18.7311C155.582 17.104 155.902 15.4907 156.539 13.9936C157.177 12.4966 158.119 11.1485 159.306 10.0352C160.462 8.86011 161.846 7.93219 163.372 7.30776C164.898 6.68334 166.535 6.37541 168.184 6.40266C169.821 6.37991 171.446 6.69324 172.957 7.32329C174.469 7.95333 175.835 8.8867 176.971 10.0657C178.148 11.205 179.078 12.5735 179.705 14.0867C180.331 15.5998 180.641 17.2255 180.614 18.863C180.64 20.502 180.325 22.1286 179.689 23.6395C179.053 25.1504 178.111 26.5127 176.921 27.64C174.623 29.8834 171.561 31.1726 168.35 31.2479C165.14 31.3233 162.02 30.1791 159.62 28.0459C158.299 26.8902 157.253 25.4542 156.558 23.8427C155.863 22.2313 155.536 20.4849 155.602 18.7311ZM159.245 18.7311C159.207 19.9465 159.425 21.1563 159.884 22.2821C160.344 23.4078 161.035 24.4243 161.913 25.2657C162.714 26.0815 163.669 26.729 164.723 27.1698C165.778 27.6107 166.909 27.8362 168.052 27.8328C169.235 27.8558 170.409 27.6363 171.503 27.1878C172.598 26.7393 173.588 26.0713 174.414 25.2251C175.256 24.3819 175.919 23.3776 176.364 22.2722C176.808 21.1669 177.025 19.9832 177.002 18.792C177.033 17.604 176.822 16.4222 176.382 15.3181C175.943 14.2141 175.284 13.2108 174.445 12.369C173.633 11.521 172.653 10.8513 171.568 10.4023C170.484 9.95338 169.317 9.73507 168.144 9.76127C166.967 9.73779 165.799 9.95726 164.711 10.406C163.623 10.8547 162.64 11.5229 161.822 12.369C160.976 13.202 160.31 14.2004 159.867 15.302C159.423 16.4036 159.212 17.5847 159.245 18.7717V18.7311Z" fill="white"/>
<path d="M212.719 8.11755V12.4097C210.945 10.7811 208.642 9.8479 206.235 9.78164C205.067 9.75923 203.909 9.98458 202.835 10.4428C201.761 10.9011 200.796 11.5818 200.005 12.4401C199.173 13.2926 198.521 14.3026 198.085 15.4108C197.65 16.519 197.44 17.7031 197.468 18.8935C197.44 20.0702 197.65 21.2405 198.086 22.3338C198.522 23.4272 199.175 24.421 200.005 25.2556C200.809 26.0966 201.778 26.7617 202.852 27.2088C203.927 27.6559 205.082 27.8753 206.245 27.8532C207.359 27.8827 208.467 27.6716 209.492 27.2342C210.039 27.0004 210.562 26.715 211.055 26.3819C211.641 25.989 212.203 25.5621 212.739 25.1034V29.4665C210.76 30.6157 208.513 31.2213 206.225 31.222C204.597 31.2495 202.981 30.9462 201.474 30.3305C199.967 29.7148 198.601 28.7995 197.458 27.6401C196.289 26.5106 195.365 25.1534 194.742 23.6525C194.119 22.1516 193.81 20.5387 193.835 18.9138C193.824 15.9117 194.906 13.0082 196.879 10.7456C198.047 9.32928 199.522 8.19754 201.192 7.43627C202.862 6.675 204.684 6.3042 206.519 6.352C208.707 6.37286 210.848 6.98275 212.719 8.11755Z" fill="white"/>
<path d="M227.766 15.6972H231.277V30.8161H227.766V29.2332C227.121 29.893 226.347 30.4128 225.492 30.7602C224.637 31.1075 223.72 31.275 222.797 31.2522C221.875 31.2293 220.967 31.0166 220.13 30.6274C219.293 30.2381 218.546 29.6806 217.934 28.9896C216.561 27.3857 215.837 25.3264 215.905 23.2161C215.837 21.1363 216.562 19.1086 217.934 17.544C218.563 16.8183 219.343 16.2396 220.219 15.8486C221.096 15.4576 222.048 15.2639 223.008 15.2812C223.905 15.2919 224.791 15.4906 225.607 15.8646C226.423 16.2387 227.152 16.7796 227.746 17.4526L227.766 15.6972ZM219.476 23.2161C219.419 24.4995 219.834 25.7596 220.643 26.7573C221.013 27.2033 221.479 27.5593 222.006 27.7984C222.534 28.0375 223.109 28.1534 223.687 28.1373C224.277 28.1597 224.863 28.0512 225.405 27.8196C225.948 27.588 226.432 27.239 226.823 26.7979C227.617 25.8241 228.029 24.5936 227.98 23.3378C228.03 22.0625 227.603 20.8142 226.782 19.8372C226.398 19.3949 225.92 19.0441 225.383 18.8106C224.845 18.5771 224.263 18.4667 223.677 18.4876C223.1 18.4721 222.528 18.5861 222.001 18.8215C221.474 19.0568 221.007 19.4073 220.633 19.8473C219.853 20.7935 219.442 21.9902 219.476 23.2161Z" fill="white"/>
<path d="M239.172 38H235.681V15.6769H239.172V17.3207C239.775 16.6831 240.502 16.1745 241.308 15.8257C242.113 15.4769 242.982 15.2951 243.86 15.2914C244.833 15.2694 245.8 15.4636 246.689 15.8602C247.579 16.2567 248.369 16.8457 249.004 17.5845C250.384 19.1803 251.109 21.2394 251.033 23.348C251.107 25.4255 250.38 27.4521 249.004 29.0099C248.391 29.7061 247.639 30.266 246.797 30.6536C245.954 31.0413 245.039 31.248 244.112 31.2604C243.185 31.2728 242.265 31.0907 241.412 30.7258C240.56 30.3609 239.793 29.8213 239.162 29.1418L239.172 38ZM247.482 23.3378C247.54 22.0509 247.117 20.7885 246.295 19.7966C245.927 19.3489 245.461 18.9916 244.933 18.7524C244.406 18.5131 243.83 18.3982 243.251 18.4166C242.664 18.3944 242.08 18.5021 241.54 18.7319C240.999 18.9616 240.516 19.3079 240.125 19.7458C239.298 20.723 238.87 21.9772 238.928 23.2566C238.883 24.5342 239.309 25.7839 240.125 26.7674C240.511 27.2081 240.989 27.5577 241.526 27.791C242.063 28.0244 242.645 28.1357 243.23 28.117C243.8 28.1295 244.366 28.0128 244.884 27.7756C245.403 27.5383 245.861 27.1867 246.224 26.7472C247.061 25.8118 247.511 24.5928 247.482 23.3378Z" fill="white"/>
<path d="M254.22 9.41634C254.22 8.96751 254.355 8.52903 254.605 8.15666C254.856 7.78429 255.211 7.49486 255.627 7.32517C256.042 7.15548 256.499 7.1132 256.939 7.20371C257.378 7.29421 257.781 7.51341 258.096 7.83343C258.308 8.03962 258.476 8.28766 258.587 8.56187C258.699 8.83607 258.753 9.13048 258.745 9.42649C258.751 9.72712 258.695 10.0258 258.58 10.3035C258.464 10.5812 258.293 10.8319 258.075 11.0398C257.871 11.256 257.624 11.4272 257.349 11.5426C257.075 11.6579 256.78 11.7147 256.482 11.7095C256.181 11.7109 255.883 11.6524 255.605 11.5375C255.326 11.4226 255.074 11.2536 254.861 11.0403C254.649 10.8269 254.481 10.5735 254.367 10.2947C254.254 10.016 254.197 9.71738 254.199 9.41634H254.22ZM258.278 15.6972V30.8161H254.788V15.6972H258.278Z" fill="white"/>
<path d="M266.264 18.9645V30.816H262.804V18.9645H261.282V15.6972H262.804V10.1469H266.294V15.687H269.003V18.9543L266.264 18.9645Z" fill="white"/>
<path d="M282.499 15.6973H286.009V30.8161H282.499V29.2332C281.854 29.8927 281.081 30.4124 280.227 30.7597C279.373 31.1069 278.456 31.2744 277.534 31.2515C276.613 31.2287 275.706 31.016 274.87 30.6268C274.034 30.2377 273.287 29.6803 272.676 28.9896C271.3 27.3877 270.576 25.327 270.647 23.2161C270.571 21.1351 271.297 19.1044 272.676 17.544C273.303 16.8167 274.083 16.2368 274.96 15.8457C275.837 15.4545 276.79 15.2618 277.75 15.2812C278.648 15.2919 279.533 15.4907 280.349 15.8647C281.165 16.2387 281.894 16.7797 282.488 17.4527L282.499 15.6973ZM274.209 23.2161C274.151 24.4996 274.566 25.7596 275.375 26.7573C275.745 27.2027 276.212 27.5583 276.739 27.7974C277.266 28.0364 277.841 28.1526 278.42 28.1373C279.008 28.1548 279.593 28.0441 280.135 27.8128C280.676 27.5815 281.161 27.2352 281.555 26.7979C282.346 25.8223 282.757 24.5931 282.712 23.3378C282.76 22.0646 282.338 20.8181 281.524 19.8372C281.139 19.3966 280.66 19.047 280.124 18.8136C279.587 18.5802 279.005 18.4689 278.42 18.4876C277.843 18.4728 277.27 18.5872 276.743 18.8225C276.217 19.0578 275.749 19.4079 275.375 19.8473C274.592 20.7921 274.177 21.989 274.209 23.2161Z" fill="white"/>
<path d="M293.904 4.60669V30.816H290.413V4.60669H293.904Z" fill="white"/>
<path d="M312.422 6.84912V27.3965H319.525V30.7957H308.81V6.84912H312.422Z" fill="white"/>
<path d="M325.836 18.9645V30.816H322.345V18.9645H320.854V15.6972H322.345V10.1469H325.836V15.687H328.555V18.9543L325.836 18.9645Z" fill="white"/>
<path d="M342.071 4.60669H345.582V30.816H342.071V29.2331C341.47 29.8687 340.747 30.3762 339.945 30.7249C339.142 31.0737 338.278 31.2565 337.403 31.2625C336.431 31.2848 335.466 31.0938 334.575 30.7028C333.684 30.3119 332.89 29.7306 332.249 28.9997C330.871 27.3983 330.147 25.3372 330.219 23.2262C330.148 21.1521 330.875 19.1296 332.249 17.5744C332.872 16.8412 333.651 16.2559 334.528 15.861C335.406 15.4662 336.36 15.2716 337.322 15.2913C338.222 15.2999 339.109 15.4977 339.927 15.8718C340.746 16.2459 341.476 16.788 342.071 17.4628V4.60669ZM333.832 23.216C333.776 24.4976 334.187 25.7559 334.988 26.7573C335.36 27.2009 335.826 27.5554 336.353 27.7942C336.88 28.0331 337.454 28.1504 338.032 28.1373C338.622 28.1597 339.208 28.0511 339.75 27.8195C340.293 27.5879 340.777 27.239 341.168 26.7979C341.951 25.8198 342.352 24.5897 342.294 23.3378C342.345 22.0625 341.918 20.8142 341.097 19.8371C340.71 19.4151 340.239 19.0782 339.715 18.8477C339.191 18.6172 338.625 18.4982 338.053 18.4982C337.48 18.4982 336.914 18.6172 336.39 18.8477C335.866 19.0782 335.396 19.4151 335.009 19.8371C334.219 20.7831 333.801 21.9842 333.832 23.216Z" fill="white"/>
<path d="M350.533 29.0809C350.53 28.7999 350.585 28.5214 350.695 28.2629C350.806 28.0044 350.968 27.7716 351.173 27.5791C351.371 27.3766 351.608 27.2158 351.869 27.106C352.131 26.9961 352.411 26.9396 352.695 26.9396C352.978 26.9396 353.259 26.9961 353.52 27.106C353.782 27.2158 354.018 27.3766 354.217 27.5791C354.424 27.7739 354.588 28.01 354.698 28.2722C354.808 28.5344 354.862 28.8168 354.856 29.1012C354.85 29.5276 354.719 29.9429 354.48 30.2957C354.24 30.6486 353.903 30.9235 353.509 31.0865C353.115 31.2495 352.681 31.2935 352.263 31.2129C351.844 31.1324 351.458 30.9309 351.152 30.6333C350.95 30.4293 350.792 30.1867 350.685 29.92C350.579 29.6533 350.527 29.3679 350.533 29.0809Z" fill="white"/>
</g>
<defs>
<clipPath id="clip0">
<rect width="364" height="38" fill="white"/>
</clipPath>
</defs>
</svg>
