<?xml version="1.0" standalone="no"?>
<!DOCTYPE svg PUBLIC "-//W3C//DTD SVG 20010904//EN"
 "http://www.w3.org/TR/2001/REC-SVG-20010904/DTD/svg10.dtd">
<svg version="1.0" xmlns="http://www.w3.org/2000/svg"
 width="280.000000pt" height="280.000000pt" viewBox="0 0 280.000000 280.000000"
 preserveAspectRatio="xMidYMid meet">
<metadata>
Created by potrace 1.14, written by Peter Selinger 2001-2017
</metadata>
<g transform="translate(0.000000,280.000000) scale(0.100000,-0.100000)"
fill="#000000" stroke="none">
<path d="M1249 2726 c-2 -2 -26 -6 -54 -10 -59 -7 -66 -8 -168 -35 -190 -50
-409 -176 -558 -322 -83 -82 -163 -179 -189 -229 -7 -14 -16 -27 -20 -30 -4
-3 -28 -48 -53 -100 -67 -138 -102 -249 -125 -395 -14 -93 -7 -359 13 -440 2
-11 9 -40 15 -65 99 -418 433 -781 846 -919 114 -37 134 -42 244 -59 57 -9
311 -9 370 0 121 18 307 76 364 113 14 10 26 15 26 11 0 -12 144 78 245 154
11 8 61 56 110 106 374 378 481 965 262 1444 -16 36 -33 74 -38 85 -10 22 -42
71 -103 161 -47 69 -179 203 -261 266 -155 118 -345 203 -542 243 -13 3 -35 8
-50 11 -30 7 -328 15 -334 10z"/>
</g>
</svg>
